<svg class="border border-primary bg-primary" width="180" height="150" viewBox="20 30 160 120" xmlns="http://www.w3.org/2000/svg">
  <rect x="20" y="30" width="90" height="120" rx="10" ry="10" fill="#4A90E2" />
  <rect x="120" y="70" width="60" height="80" rx="8" ry="8" fill="#003366" />

  <!-- Líneas en el documento -->
  <rect x="35" y="45" width="60" height="10" rx="2" fill="white" />
  <rect x="35" y="65" width="50" height="10" rx="2" fill="white" />
  <rect x="35" y="85" width="40" height="10" rx="2" fill="white" />

  <!-- Gráfico circular -->
  <circle cx="60" cy="120" r="20" fill="white"/>
  <path d="M60 120 L60 100 A20 20 0 0 1 80 120 Z" fill="#4A90E2"/>

  <!-- Calculadora botones -->
  <rect x="130" y="80" width="40" height="15" rx="2" fill="white"/>
  <rect x="130" y="100" width="10" height="10" fill="white"/>
  <rect x="145" y="100" width="10" height="10" fill="white"/>
  <rect x="160" y="100" width="10" height="10" fill="white"/>
  <rect x="130" y="115" width="10" height="10" fill="white"/>
  <rect x="145" y="115" width="10" height="10" fill="white"/>
  <rect x="160" y="115" width="10" height="10" fill="white"/>
  <rect x="130" y="130" width="10" height="10" fill="white"/>
  <rect x="145" y="130" width="10" height="10" fill="white"/>
  <rect x="160" y="130" width="10" height="10" fill="white"/>
</svg>
